<svg xmlns="http://www.w3.org/2000/svg" width="1600" height="2560" viewBox="0 0 1600 2560" preserveAspectRatio="xMidYMid slice">
  <defs>
    <linearGradient id="g" x1="0" y1="0" x2="1" y2="1">
      <stop stop-color="#0b1f2a" offset="0"/>
      <stop stop-color="#12344a" offset="0.45"/>
      <stop stop-color="#1e4b5f" offset="1"/>
    </linearGradient>
    <linearGradient id="accent" x1="0" y1="1" x2="1" y2="0">
      <stop stop-color="#59d0c6" offset="0"/>
      <stop stop-color="#9cf1e8" offset="1"/>
    </linearGradient>
  </defs>
  <rect width="1600" height="2560" fill="url(#g)"/>
  <g opacity="0.18">
    <path d="M-200 400 Q800 0 1800 420 L1800 2560 L-200 2560 Z" fill="#6af0e4"/>
  </g>
  <g opacity="0.12">
    <path d="M-300 900 Q900 300 1900 940 L1900 2560 L-300 2560 Z" fill="#8fffe6"/>
  </g>
  <g opacity="0.12">
    <path d="M-300 1400 Q900 900 1900 1440 L1900 2560 L-300 2560 Z" fill="#59d0c6"/>
  </g>
  <g opacity="0.16">
    <circle cx="1300" cy="520" r="160" fill="url(#accent)"/>
  </g>
  <text x="200" y="760" fill="#e9f5f8" font-family="'DM Sans', 'Inter', 'Helvetica', sans-serif" font-size="84" font-weight="700" letter-spacing="2">RESET &amp; RISE</text>
  <text x="200" y="860" fill="#b8d6de" font-family="'Inter', 'Helvetica', sans-serif" font-size="38" font-weight="500" letter-spacing="1.2">A PRACTICAL GUIDE TO SELF-HELP THAT STICKS</text>
  <text x="200" y="1020" fill="#d3e7ec" font-family="'Inter', 'Helvetica', sans-serif" font-size="30" font-weight="500">10 chapters • exercises • reflection prompts • 30-day reset plan</text>
  <text x="200" y="1140" fill="#c0dbe2" font-family="'Inter', 'Helvetica', sans-serif" font-size="28" font-weight="400">Energy, focus, emotion regulation, confidence, relationships, momentum, restart toolkit.</text>
  <text x="200" y="2060" fill="#a9c8d1" font-family="'Inter', 'Helvetica', sans-serif" font-size="32" font-weight="600">Your Name</text>
  <text x="200" y="2120" fill="#8fb4bf" font-family="'Inter', 'Helvetica', sans-serif" font-size="24" font-weight="500">© 2026 Your Name. All rights reserved.</text>
  <g opacity="0.4">
    <path d="M400 1500 L1150 900" stroke="#59d0c6" stroke-width="6" stroke-linecap="round"/>
    <path d="M420 1620 L1220 1040" stroke="#9cf1e8" stroke-width="4" stroke-linecap="round"/>
    <path d="M430 1740 L1260 1180" stroke="#59d0c6" stroke-width="3" stroke-linecap="round"/>
  </g>
</svg>
